# xmcd
# Copyright (C) 1995-1998 Ti Kan
#
# Track frame offsets:
#       150
#       18311
#       41003
#       59677
#       78842
#       94769
#       112506
#       132040
#       146433
#       160169
#       179818
#
# Disc length: 2601 seconds
#
# Revision: 0
# Processed by: cddbd v1.5.2PL0 Copyright (c) Steve Scherf et al.
# Submitted via: CD-Transfer v1.0
#
DISCID=880a270b
DTITLE=Flyer - Mario Kovaè
DYEAR=17
DGENRE=
TTITLE0=Pjesma Za Dvoje
TTITLE1=Sanjam
TTITLE2=Ljeto
TTITLE3=More
TTITLE4=Nismo Sami
TTITLE5=Ruke
TTITLE6=Sve Je U Redu
TTITLE7=Inspiracija
TTITLE8=Sretno Izgubljen
TTITLE9=Kako Da Te Ne Volim
TTITLE10=Radio (C)
EXTD=
EXTT0=
EXTT1=
EXTT2=
EXTT3=
EXTT4=
EXTT5=
EXTT6=
EXTT7=
EXTT8=
EXTT9=
EXTT10=
PLAYORDER=
